<svg width="13" height="15" viewBox="0 0 13 15" fill="none" xmlns="http://www.w3.org/2000/svg">
<path fill-rule="evenodd" clip-rule="evenodd" d="M6.71145 0.796909C6.57742 0.734364 6.42258 0.734364 6.28856 0.796909L0.288557 3.59691C0.112517 3.67906 0 3.85574 0 4.05V10.95C0 11.1443 0.112517 11.3209 0.288557 11.4031L6.28856 14.2031C6.42258 14.2656 6.57742 14.2656 6.71145 14.2031L12.7114 11.4031C12.8875 11.3209 13 11.1443 13 10.95V4.05C13 3.85574 12.8875 3.67906 12.7114 3.59691L6.71145 0.796909ZM6.5 3.15675L4.9804 2.51092L6.5 1.80177L8.0196 2.51092L6.5 3.15675ZM6.69557 4.16019L9.23821 3.07959L11.2719 4.02866L6.5 6.05672L1.72809 4.02866L3.76182 3.07959L6.30443 4.16019C6.4294 4.21331 6.5706 4.21331 6.69557 4.16019ZM7 6.93079L12 4.80579V7.92967L10.0821 8.81191C9.72731 8.9751 9.50001 9.32989 9.50001 9.7204V11.7982L7 12.9649V6.93079ZM10.5 11.3316L12 10.6316V9.0304L10.5 9.7204V11.3316ZM6 6.93079V12.9649L3.50232 11.7993V9.72037C3.50232 9.32986 3.275 8.97507 2.92023 8.81188L0.999997 7.92857V4.80579L6 6.93079ZM0.999997 10.6316L2.50232 11.3326V9.72037L0.999997 9.0293V10.6316Z" fill="white"/>
</svg>
