<svg width="9" height="14" viewBox="0 0 9 14" fill="none" xmlns="http://www.w3.org/2000/svg">
<path fill-rule="evenodd" clip-rule="evenodd" d="M0.3825 1.29546C0.46241 1.11411 0.64188 0.99707 0.84005 0.99707H8.5C8.7761 0.99707 9 1.22093 9 1.49707V5.49979C9 5.77593 8.7761 5.99979 8.5 5.99979H5.63521L8.5288 9.16226C8.6626 9.30849 8.6974 9.51994 8.6175 9.70133C8.5376 9.88272 8.3582 9.99979 8.16 9.99979H5V13.4998C5 13.702 4.87818 13.8843 4.69134 13.9617C4.5045 14.0391 4.28945 13.9964 4.14645 13.8534L0.14645 9.85334C0.05268 9.75958 0 9.6324 0 9.49979V5.49979C0 5.22365 0.22386 4.99979 0.5 4.99979H3.36531L0.47105 1.83447C0.33732 1.68823 0.30259 1.4768 0.3825 1.29546ZM4.72032 4.99979L1.97474 1.99707H8V4.99979H4.72032ZM4.27978 5.99979H1V8.99979H4.5H7.0247L4.27978 5.99979ZM1.70711 9.99979L4 12.2927V9.99979H1.70711Z" fill="white"/>
</svg>
