<svg width="28" height="34" viewBox="0 0 28 34" fill="none" xmlns="http://www.w3.org/2000/svg">
<path fill-rule="evenodd" clip-rule="evenodd" d="M0.800049 11.1333C0.800049 18.4168 6.64234 21.4 12.5334 21.4V31.6667C12.5334 32.4766 13.19 33.1333 14.0001 33.1333C14.8101 33.1333 15.4667 32.4766 15.4667 31.6667V21.4V4.09334H18.4001V31.6667C18.4001 32.4766 19.0567 33.1333 19.8667 33.1333C20.6767 33.1333 21.3334 32.4766 21.3334 31.6667V4.09334H25.7334C26.6245 4.09334 27.3467 3.37103 27.3467 2.48C27.3467 1.58897 26.6245 0.866669 25.7334 0.866669H19.8667H15.4667H14.0001H12.5334C6.64234 0.866669 0.800049 3.84987 0.800049 11.1333Z" fill="white"/>
</svg>
