<svg width="15" height="12" viewBox="0 0 15 12" fill="none" xmlns="http://www.w3.org/2000/svg">
<path fill-rule="evenodd" clip-rule="evenodd" d="M7.23348 3.69608C7.23348 1.96863 8.63347 0.568359 10.3601 0.568359C11.3737 0.568359 12.1831 1.04783 12.7255 1.74364C13.308 1.62446 13.8558 1.40892 14.3514 1.11487C14.156 1.72577 13.7425 2.23939 13.2034 2.56442C13.2039 2.56547 13.2043 2.56653 13.2048 2.56758C13.7335 2.5034 14.2365 2.36281 14.7049 2.15525L14.7038 2.15694C14.3668 2.66162 13.9432 3.10715 13.4562 3.47013C13.4824 3.64651 13.4957 3.82406 13.4957 4.00058C13.4957 7.68689 10.6874 11.9744 5.52134 11.9744C3.93918 11.9744 2.46556 11.5108 1.22517 10.715C0.992754 10.5659 0.92523 10.2566 1.07435 10.0242C1.08752 10.0036 1.10195 9.98439 1.11746 9.96639C1.20594 9.81999 1.3745 9.73069 1.55552 9.75199C2.47078 9.85989 3.3858 9.74829 4.19231 9.39599C3.39238 9.04319 2.77141 8.35954 2.50216 7.51953C2.45371 7.36839 2.48847 7.2029 2.59363 7.08401C2.59728 7.07989 2.60099 7.07585 2.60476 7.07189C1.96403 6.50798 1.55985 5.68187 1.55985 4.76122V4.72738C1.55985 4.56793 1.64423 4.42038 1.78167 4.33953C1.82683 4.31296 1.87549 4.2949 1.92544 4.28537C1.70561 3.86133 1.58128 3.37963 1.58128 2.86937C1.58128 2.40144 1.58396 1.81171 1.91344 1.2806C1.9873 1.16154 2.1077 1.08894 2.23652 1.07174C2.426 1.01216 2.64099 1.06948 2.77418 1.23281C3.86548 2.57105 5.44078 3.49562 7.23378 3.7394L7.23348 3.69608ZM5.52134 10.9744C4.73399 10.9744 3.97793 10.8433 3.2726 10.6021C4.13024 10.4536 4.95319 10.1157 5.6623 9.55999C5.81223 9.44249 5.87194 9.24329 5.81138 9.06269C5.75082 8.88213 5.58312 8.75922 5.39267 8.75586C4.6898 8.74345 4.06724 8.39695 3.67805 7.86824C3.8684 7.85285 4.0544 7.82018 4.23457 7.77146C4.43615 7.71695 4.57375 7.53093 4.56686 7.32222C4.55997 7.11351 4.41041 6.93697 4.20567 6.89586C3.42706 6.73956 2.79895 6.16743 2.56181 5.42153C2.76267 5.47004 2.97114 5.49889 3.18494 5.50589C3.38575 5.51246 3.56658 5.38512 3.62807 5.19384C3.68955 5.00256 3.61678 4.7937 3.44975 4.68203C2.86535 4.29134 2.48128 3.62443 2.48128 2.86937C2.48128 2.70192 2.48364 2.55247 2.49367 2.41698C3.85127 3.79892 5.70885 4.6891 7.776 4.79317C7.93237 4.80105 8.0834 4.73522 8.18407 4.61532C8.28475 4.49541 8.32344 4.33527 8.28863 4.18263C8.25267 4.02496 8.23348 3.86263 8.23348 3.69608C8.23348 2.52064 9.18603 1.56836 10.3601 1.56836C11.5944 1.56836 12.4957 2.71187 12.4957 4.00058C12.4957 7.25688 10.0203 10.9744 5.52134 10.9744Z" fill="white"/>
</svg>
